# xmcd
#
# Track frame offsets:
# 150
# 16685
# 28982
# 42027
# 58503
# 77631
# 94282
# 119743
# 134369
# 153544
#
# Disc length: 2373 seconds
#
# Revision: 1
# Processed by: cddbd v1.5.2PL0 Copyright (c) Steve Scherf et al.
# Submitted via: CedeCatalogueitor 2.6.0.6 http://personales.ya.com/cdcatalogueitor
#
DISCID=7f09430a
DTITLE=Raydibaum - The Biggest Box
DYEAR=1900
DGENRE=
TTITLE0=Self-sending To Sydney
TTITLE1=Meaningless
TTITLE2=Mushroom Boy
TTITLE3=Brian's First Day
TTITLE4=Greetings From Dallas
TTITLE5=Where Will We Go?
TTITLE6=Autoplant
TTITLE7=Galactic Breadbear
TTITLE8=Painter
TTITLE9=This Is The End
EXTD=
EXTT0=
EXTT1=
EXTT2=
EXTT3=
EXTT4=
EXTT5=
EXTT6=
EXTT7=
EXTT8=
EXTT9=
PLAYORDER=
